<svg xmlns="http://www.w3.org/2000/svg" xmlns:xlink="http://www.w3.org/1999/xlink" width="247px" height="25px"><path fill-rule="evenodd" fill="rgb(255, 255, 255)" d="M240.698,24.155 L239.368,20.514 L231.516,20.514 L230.057,24.155 L224.120,24.155 L232.425,2.474 L238.557,2.474 L246.700,24.155 L240.698,24.155 ZM235.442,9.203 L233.074,16.224 L237.875,16.224 L235.442,9.203 ZM210.530,11.673 L205.306,24.155 L203.068,24.155 L198.072,11.673 L196.223,24.155 L190.642,24.155 L194.308,2.474 L199.856,2.474 L204.236,14.046 L208.875,2.474 L214.488,2.474 L217.732,24.155 L212.119,24.155 L210.530,11.673 ZM177.278,16.971 L173.742,16.971 L173.742,24.155 L168.129,24.155 L168.129,2.474 L177.083,2.474 C178.965,2.474 180.912,2.832 182.566,4.425 C184.253,6.050 184.577,7.870 184.577,9.690 C184.577,11.413 184.350,13.428 182.664,15.086 C180.976,16.744 178.965,16.971 177.278,16.971 ZM178.057,7.805 C177.408,7.122 176.370,7.025 175.656,7.025 L173.742,7.025 L173.742,12.421 L175.623,12.421 C176.208,12.421 177.310,12.356 177.992,11.738 C178.673,11.153 178.706,10.275 178.706,9.755 C178.706,9.170 178.641,8.390 178.057,7.805 ZM147.758,24.642 C144.546,24.642 141.432,23.537 139.226,21.424 C136.922,19.214 135.820,16.191 135.820,13.331 C135.820,10.438 136.922,7.382 139.226,5.205 C141.432,3.092 144.546,1.987 147.758,1.987 C150.970,1.987 154.085,3.092 156.291,5.205 C158.594,7.382 159.697,10.438 159.697,13.331 C159.697,16.191 158.594,19.214 156.291,21.424 C154.085,23.537 150.970,24.642 147.758,24.642 ZM152.106,9.170 C150.905,8.033 149.251,7.447 147.758,7.447 C146.201,7.447 144.546,8.000 143.379,9.170 C142.211,10.308 141.659,11.901 141.659,13.428 C141.659,15.346 142.567,16.679 143.379,17.459 C144.417,18.466 145.877,19.182 147.758,19.182 C149.672,19.182 151.100,18.499 152.106,17.491 C153.111,16.484 153.857,14.989 153.857,13.331 C153.857,11.641 153.111,10.145 152.106,9.170 ZM118.369,21.132 L118.369,24.155 L112.724,24.155 L112.724,21.132 C108.636,21.132 106.462,20.059 105.035,18.661 C103.121,16.744 102.731,14.533 102.731,12.551 C102.731,10.730 103.056,8.163 105.067,6.245 C106.852,4.522 109.739,3.774 112.724,3.774 L112.724,0.622 L118.369,0.622 L118.369,3.774 C121.353,3.774 124.241,4.522 126.025,6.245 C128.036,8.163 128.361,10.730 128.361,12.551 C128.361,14.533 127.971,16.744 126.057,18.661 C124.630,20.059 122.456,21.132 118.369,21.132 ZM113.145,8.130 L112.886,8.130 C111.945,8.130 110.647,8.228 109.642,9.138 C108.993,9.723 108.376,10.795 108.376,12.388 C108.376,13.591 108.798,14.923 109.642,15.736 C110.582,16.646 111.750,16.776 112.853,16.776 L113.145,16.776 L113.145,8.130 ZM121.451,9.138 C120.445,8.228 119.147,8.130 118.206,8.130 L117.947,8.130 L117.947,16.776 L118.239,16.776 C119.342,16.776 120.510,16.646 121.451,15.736 C122.294,14.923 122.716,13.591 122.716,12.388 C122.716,10.795 122.100,9.723 121.451,9.138 ZM91.735,24.155 L86.123,24.155 L86.123,7.252 L81.516,7.252 L81.516,2.474 L96.342,2.474 L96.342,7.252 L91.735,7.252 L91.735,24.155 ZM69.839,20.514 L61.988,20.514 L60.528,24.155 L54.591,24.155 L62.897,2.474 L69.028,2.474 L77.171,24.155 L71.169,24.155 L69.839,20.514 ZM65.914,9.203 L63.545,16.224 L68.347,16.224 L65.914,9.203 ZM38.146,10.971 L32.955,24.167 L26.824,24.167 L35.907,2.487 L40.287,2.487 L49.501,24.167 L43.402,24.167 L38.146,10.971 ZM14.044,7.285 L6.290,7.285 L6.290,24.155 L0.678,24.155 L0.678,2.474 L19.689,2.474 L19.689,24.155 L14.044,24.155 L14.044,7.285 Z"/></svg>
